<svg width="44" height="35" viewBox="0 0 44 35" fill="none" xmlns="http://www.w3.org/2000/svg">
<path d="M7.94327 34.3135V32.0648C7.96991 31.6821 7.83057 31.3066 7.56079 31.0339C7.29105 30.7612 6.9169 30.618 6.53406 30.6406C6.02957 30.6077 5.54706 30.8519 5.27475 31.2778C5.02646 30.8644 4.57205 30.6201 4.09039 30.6406C3.67096 30.6195 3.2717 30.822 3.04099 31.1729L3.04092 30.7305H2.26135V34.3136H3.04837V32.3271C3.01395 32.0789 3.09238 31.8284 3.26215 31.644C3.43192 31.4598 3.67526 31.3611 3.92545 31.3752C4.44266 31.3752 4.70502 31.7125 4.70502 32.3196V34.3135H5.49213V32.3271C5.46024 32.0795 5.53949 31.8304 5.70874 31.6467C5.8779 31.4631 6.11969 31.3636 6.36911 31.3752C6.90134 31.3752 7.15616 31.7125 7.15616 32.3196V34.3135H7.94327ZM19.5919 30.7304H18.3176V29.6437H17.5306V30.7305H16.8034V31.4427H17.5306V33.0768C17.5306 33.9088 17.8529 34.4036 18.7749 34.4036C19.1193 34.4046 19.457 34.3085 19.7493 34.1262L19.5244 33.459C19.3154 33.5837 19.0781 33.6534 18.8348 33.6615C18.445 33.6615 18.3176 33.4216 18.3176 33.0619V31.4427H19.5919V30.7304ZM26.2407 30.6404C25.8536 30.6291 25.4912 30.8304 25.2963 31.1652V30.7305H24.5243V34.3135H25.3038V32.3046C25.3038 31.7124 25.5586 31.3826 26.0684 31.3826C26.2352 31.3804 26.4007 31.4109 26.5556 31.4725L26.7955 30.7379C26.6174 30.6742 26.4299 30.6413 26.2407 30.6404ZM16.1888 31.0153C15.7475 30.7529 15.2401 30.6228 14.727 30.6404C13.8201 30.6404 13.2354 31.0753 13.2354 31.7874C13.2354 32.3721 13.6702 32.7319 14.4722 32.8443L14.8394 32.8967C15.2667 32.9567 15.4691 33.0691 15.4691 33.2715C15.4691 33.5488 15.1843 33.7063 14.6521 33.7063C14.224 33.7187 13.8042 33.5866 13.4602 33.3315L13.093 33.9387C13.5471 34.2558 14.091 34.4187 14.6446 34.4035C15.679 34.4035 16.2787 33.9161 16.2787 33.234C16.2787 32.6044 15.8065 32.2746 15.0269 32.1622L14.6596 32.1097C14.3223 32.0647 14.0525 31.9973 14.0525 31.7574C14.0525 31.4951 14.3073 31.3376 14.7346 31.3376C15.127 31.3435 15.5114 31.4493 15.8515 31.645L16.1888 31.0153ZM37.0723 30.6404C36.6852 30.6291 36.3228 30.8304 36.1279 31.1652V30.7305H35.3559V34.3135H36.1354V32.3046C36.1354 31.7124 36.3902 31.3826 36.8999 31.3826C37.0667 31.3804 37.2323 31.4109 37.3872 31.4725L37.6271 30.7379C37.449 30.6742 37.2615 30.6413 37.0723 30.6404ZM27.0278 32.522C27.0069 33.0323 27.2026 33.5279 27.5667 33.8862C27.9307 34.2446 28.4293 34.4325 28.9393 34.4035C29.4074 34.427 29.8673 34.2745 30.2286 33.9761L29.8538 33.3465C29.5843 33.5519 29.2557 33.6649 28.9169 33.6688C28.3104 33.632 27.8374 33.1294 27.8374 32.522C27.8374 31.9144 28.3104 31.4119 28.9169 31.3751C29.2557 31.379 29.5843 31.4919 29.8538 31.6974L30.2286 31.0677C29.8673 30.7693 29.4074 30.6169 28.9394 30.6404C28.4294 30.6115 27.9308 30.7993 27.5667 31.1577C27.2026 31.516 27.007 32.0116 27.0278 32.522ZM34.3289 32.522V30.7304H33.5493V31.1652C33.2793 30.8173 32.8574 30.6218 32.4174 30.6404C31.4142 30.6898 30.6261 31.5175 30.6261 32.522C30.6261 33.5264 31.4142 34.3541 32.4174 34.4035C32.8574 34.4222 33.2793 34.2267 33.5493 33.8787V34.3135H34.3287L34.3289 32.522ZM31.4279 32.522C31.4617 31.9322 31.9609 31.4778 32.5511 31.4997C33.1414 31.5215 33.6058 32.0115 33.5959 32.602C33.586 33.1926 33.1055 33.6667 32.5149 33.6688C32.2148 33.6729 31.9266 33.5513 31.7202 33.3334C31.5138 33.1155 31.4078 32.8214 31.4279 32.522ZM22.0206 30.6404C21.0103 30.6936 20.2226 31.5356 20.2367 32.5472C20.2508 33.5589 21.0617 34.3785 22.0731 34.4035C22.6079 34.4222 23.1309 34.2435 23.5423 33.9012L23.1599 33.3241C22.864 33.5613 22.4973 33.6931 22.118 33.6988C21.5825 33.7438 21.108 33.3556 21.0461 32.8217H23.707C23.7146 32.7244 23.722 32.6269 23.722 32.522C23.7146 31.4051 23.0251 30.6404 22.0206 30.6404ZM22.0056 31.3376C22.4958 31.3281 22.9014 31.7169 22.9126 32.2072H21.0536C21.0821 31.7068 21.5048 31.3208 22.0056 31.3376ZM41.5624 32.522V29.2913H40.7829V31.1652C40.5128 30.8173 40.091 30.6216 39.651 30.6404C38.6476 30.6896 37.8592 31.5174 37.8592 32.522C37.8592 33.5266 38.6476 34.3544 39.651 34.4035C40.091 34.4223 40.5129 34.2267 40.7829 33.8787V34.3135H41.5624V32.522ZM42.8619 33.7942C42.9104 33.7939 42.9584 33.8035 43.003 33.8221C43.0459 33.8401 43.085 33.8661 43.1182 33.8986C43.1512 33.931 43.1775 33.9695 43.1959 34.012C43.2338 34.1002 43.2338 34.2001 43.1959 34.2883C43.1774 34.3306 43.151 34.369 43.1182 34.4014C43.0849 34.434 43.0458 34.4599 43.003 34.4781C42.9585 34.4972 42.9104 34.5069 42.8619 34.5065C42.7161 34.508 42.5837 34.4221 42.5255 34.2883C42.4877 34.2001 42.4877 34.1002 42.5255 34.012C42.5438 33.9696 42.57 33.9311 42.6028 33.8986C42.636 33.8658 42.6753 33.8398 42.7184 33.8221C42.7639 33.8035 42.8127 33.7938 42.8619 33.7942ZM42.8619 34.428C42.8989 34.4282 42.9355 34.4208 42.9694 34.4062C43.0019 34.392 43.0316 34.3719 43.0566 34.3468C43.1644 34.238 43.1644 34.0627 43.0566 33.954C43.0316 33.929 43.002 33.9089 42.9694 33.895C42.9354 33.8806 42.8989 33.8734 42.8619 33.8737C42.8244 33.8734 42.7871 33.8806 42.7525 33.895C42.7194 33.9088 42.6892 33.9287 42.6639 33.954C42.5561 34.0627 42.5561 34.238 42.6639 34.3468C42.6893 34.3721 42.7194 34.3923 42.7524 34.4062C42.787 34.4208 42.8243 34.4282 42.8619 34.428ZM42.883 33.9836C42.918 33.9813 42.9528 33.9914 42.9812 34.012C43.0042 34.031 43.0168 34.0596 43.0156 34.0893C43.0164 34.1147 43.0064 34.1392 42.9881 34.1569C42.9664 34.1761 42.939 34.1877 42.91 34.1896L43.0182 34.3145H42.9336L42.8332 34.1906H42.8009V34.3145H42.7302V33.9836H42.883ZM42.8009 34.0457V34.1339H42.8821C42.8978 34.1346 42.9132 34.1307 42.9266 34.1228C42.9377 34.1154 42.9441 34.1027 42.9432 34.0893C42.9439 34.0762 42.9376 34.0637 42.9266 34.0565C42.9132 34.0486 42.8977 34.0449 42.8821 34.0457H42.8009ZM38.6616 32.522C38.6953 31.9323 39.1945 31.478 39.7848 31.4998C40.375 31.5216 40.8393 32.0115 40.8294 32.6022C40.8195 33.1927 40.339 33.6668 39.7484 33.6688C39.4483 33.6729 39.1602 33.5513 38.9538 33.3334C38.7473 33.1155 38.6414 32.8214 38.6616 32.522ZM12.3359 32.522V30.7304H11.5562V31.1652C11.2863 30.8173 10.8643 30.6218 10.4243 30.6404C9.42111 30.6898 8.63309 31.5176 8.63309 32.522C8.63309 33.5264 9.42111 34.3541 10.4243 34.4035C10.8643 34.4222 11.2863 34.2267 11.5562 33.8787V34.3135H12.3359V32.522ZM9.43497 32.522C9.46878 31.9323 9.96796 31.478 10.5582 31.4998C11.1485 31.5216 11.6127 32.0115 11.6028 32.6022C11.5929 33.1927 11.1125 33.6668 10.5218 33.6688C10.2218 33.6729 9.93369 33.5514 9.72714 33.3336C9.52063 33.1158 9.41492 32.8215 9.43497 32.522Z" fill="#C3C3C3"/>
<rect x="15.9297" y="3.42432" width="11.8077" height="21.2188" fill="#C3C3C3"/>
<path d="M16.6795 14.0338C16.6757 9.89311 18.5763 5.98063 21.8337 3.42412C16.3009 -0.924669 8.35518 -0.291704 3.58073 4.87816C-1.19374 10.048 -1.19374 18.019 3.58073 23.1889C8.35518 28.3588 16.3009 28.9917 21.8336 24.6429C18.5765 22.0866 16.6758 18.1744 16.6795 14.0338Z" fill="#DBDBDB"/>
<path d="M43.6665 14.0339C43.6665 19.2005 40.7168 23.9134 36.0699 26.1713C31.4235 28.4291 25.8953 27.8358 21.8336 24.6431C25.0878 22.0843 26.9876 18.1736 26.9876 14.0338C26.9876 9.89399 25.0878 5.98322 21.8336 3.42442C25.8954 0.231698 31.4236 -0.361656 36.0704 1.89634C40.7171 4.1544 43.6667 8.8675 43.6665 14.0339Z" fill="#C3C3C3"/>
<path d="M42.379 22.3956V21.9612H42.5542V21.8727H42.108V21.9612H42.2833V22.3956H42.379ZM43.2451 22.3956V21.8718H43.1083L42.951 22.2321L42.7938 21.8718H42.6569V22.3956H42.7535V22.0005L42.9009 22.3412H43.0011L43.1486 21.9997V22.3956H43.2451Z" fill="#C3C3C3"/>
</svg>
