<svg width="31" height="24" viewBox="0 0 31 24" fill="none" xmlns="http://www.w3.org/2000/svg">
<path d="M4.1045 5.96021C3.0698 5.96021 2.23096 5.12137 2.23096 4.08668C2.23096 3.05197 3.0698 2.21313 4.1045 2.21313C5.1392 2.21313 5.97804 3.05192 5.97804 4.08668C5.97804 5.12137 5.13926 5.96021 4.1045 5.96021ZM4.1045 3.46217C3.75957 3.46217 3.47998 3.74175 3.47998 4.08668C3.47998 4.43159 3.75957 4.71119 4.1045 4.71119C4.44942 4.71119 4.72901 4.43159 4.72901 4.08668C4.72901 3.74175 4.44942 3.46217 4.1045 3.46217Z" fill="#4C8613"/>
<path d="M30.1779 17.8883C30.1779 17.3887 29.9281 16.9828 29.3036 16.6705V6.58468C29.3036 5.27319 28.1795 4.36765 26.868 4.36765H25.5565V2.77514C25.5565 1.49492 24.5885 0.30835 23.3083 0.30835H2.69939C1.3631 0.357475 0.295889 1.43832 0.263794 2.77514V13.5792C0.297862 14.8949 1.38342 15.9386 2.69939 15.9211H4.01088V17.3887C3.97627 18.6126 4.94038 19.6329 6.16431 19.6675C6.19593 19.6684 6.22748 19.6687 6.2591 19.6682H11.1303C11.6519 21.7346 13.5272 23.1701 15.658 23.1343C16.6964 23.139 17.707 22.7985 18.5307 22.1663C19.2404 22.3071 19.9618 22.3803 20.6853 22.3848C21.1225 23.5089 23.4019 23.9149 25.3691 23.9149C27.3363 23.9149 30.1779 23.5089 30.1779 22.0102L30.1779 17.8883ZM25.5566 5.61668H26.8681C27.4926 5.61668 28.0546 5.99136 28.0546 6.58468V16.2334C27.3333 16.0951 26.6027 16.0116 25.8689 15.9836V12.6112C25.9096 12.4908 25.9204 12.3621 25.9001 12.2366C25.9075 11.9559 25.7797 11.6887 25.5566 11.5184V5.61668ZM25.2443 17.1702H25.3067C26.3575 17.1791 27.3966 17.3912 28.3669 17.7947C28.5267 17.7917 28.6822 17.8472 28.804 17.9508C28.4605 18.2006 27.2427 18.5753 25.3067 18.5753C23.3707 18.5753 22.153 18.1069 21.8407 17.8571C22.153 17.6073 23.3395 17.1702 25.2443 17.1702ZM24.6198 14.2037C24.3699 14.4847 22.9648 14.9843 20.9976 14.9843C20.1574 14.9786 19.32 14.8845 18.4995 14.7033C18.1969 14.4583 17.8603 14.2584 17.5004 14.11V13.6104C18.6159 13.9883 19.7889 14.168 20.9664 14.1412C22.2046 14.1576 23.4375 13.9784 24.6198 13.6104V14.2037ZM24.4949 12.299C23.964 12.58 22.715 12.8923 20.9976 12.8923C19.2802 12.8923 17.875 12.4863 17.5315 12.2366C17.875 11.9867 19.0616 11.5808 20.9976 11.5808C22.9336 11.5808 23.8079 11.8619 24.4324 12.1742C24.4409 12.2208 24.4626 12.2641 24.4949 12.299ZM2.69939 14.6721C2.07291 14.69 1.54647 14.205 1.51282 13.5792V2.77514C1.54277 2.12726 2.05252 1.60411 2.69939 1.55731H23.3083C23.9016 1.55731 24.3075 2.18183 24.3075 2.77514V10.8001C23.2122 10.4805 22.0761 10.3227 20.9351 10.3317C19.8422 10.3317 18.3122 10.4878 17.2817 10.9562C17.8207 10.1303 18.1032 9.1633 18.0936 8.17713C18.0935 5.34886 15.8007 3.05617 12.9725 3.05623C10.1442 3.05629 7.85155 5.3491 7.85161 8.17731C7.85167 11.0056 10.1445 13.2983 12.9727 13.2982C12.9831 13.2982 12.9934 13.2982 13.0038 13.2981C14.1612 13.2895 15.2825 12.8938 16.1889 12.174V12.2364C16.1817 12.3107 16.1924 12.3857 16.2201 12.455V13.7665H15.658C14.6332 13.755 13.6336 14.0846 12.8165 14.7032L2.69939 14.6721ZM13.0038 12.0491C10.8655 12.0664 9.11803 10.3469 9.10076 8.20851C9.08349 6.07014 10.803 4.32271 12.9414 4.30544C15.0798 4.28815 16.8272 6.00768 16.8445 8.14605C16.8445 8.15639 16.8446 8.16679 16.8446 8.17713C16.8447 10.3034 15.1301 12.032 13.0038 12.0491ZM10.943 18.3879H6.2591C5.72478 18.4054 5.27742 17.9865 5.2599 17.4522C5.25919 17.431 5.25919 17.4099 5.2599 17.3887V15.9211H11.6924C11.1985 16.6485 10.9371 17.5087 10.943 18.3879ZM17.9999 21.0109C17.3537 21.5847 16.5222 21.9062 15.658 21.9164C13.9617 21.893 12.5269 20.6556 12.2544 18.9812C12.2183 18.8064 12.1974 18.6288 12.192 18.4504C12.192 16.5361 13.7438 14.9843 15.658 14.9843C16.0069 14.9904 16.3534 15.043 16.6885 15.1404C17.1438 15.268 17.5616 15.5036 17.9063 15.8274C18.4887 16.3194 18.8944 16.9883 19.0617 17.7322C19.0993 17.9593 19.1202 18.1889 19.1241 18.4191C19.1344 19.4035 18.7257 20.3458 17.9999 21.0109ZM19.5612 21.0733C19.7253 20.8239 19.8714 20.563 19.9983 20.2927H20.5604V21.1358L19.5612 21.0733ZM20.3731 18.2631H20.5292V19.075H20.2794C20.3156 18.8686 20.3365 18.6599 20.3418 18.4504L20.3731 18.2631ZM20.9039 17.0452H20.1545C20.0677 16.7488 19.9417 16.4652 19.7798 16.2022L20.9977 16.2646C22.2322 16.2686 23.4579 16.0573 24.6198 15.6401V15.9836C23.1834 16.046 21.6221 16.3583 20.9039 17.0452ZM21.8095 19.2623C22.9363 19.6377 24.1192 19.8172 25.3067 19.7931C25.619 19.7931 27.555 19.7619 28.8977 19.2311V19.8244C28.6791 20.0742 27.4613 20.5738 25.3067 20.5738C23.1522 20.5738 22.1217 20.1679 21.8095 19.9181V19.2623ZM25.3692 22.6659C23.3083 22.6659 22.0593 22.1975 21.8407 21.9477V21.3232C22.9574 21.6963 24.1296 21.8758 25.3067 21.854C26.5368 21.8661 27.7604 21.6762 28.9289 21.292V21.9477C28.7103 22.1663 27.4925 22.6659 25.3692 22.6659Z" fill="#4C8613"/>
<path d="M15.6581 21.167C14.1577 21.167 12.9414 19.9507 12.9414 18.4504C12.9414 16.95 14.1577 15.7338 15.6581 15.7338C17.1584 15.7338 18.3747 16.95 18.3747 18.4504C18.3747 19.9507 17.1584 21.167 15.6581 21.167ZM15.6581 16.9828C14.8475 16.9828 14.1904 17.6399 14.1904 18.4504C14.1904 19.2609 14.8475 19.918 15.6581 19.918C16.4686 19.918 17.1256 19.2609 17.1256 18.4504C17.1256 17.6399 16.4686 16.9828 15.6581 16.9828Z" fill="#4C8613"/>
</svg>
