<svg width="51" height="16" viewBox="0 0 51 16" fill="none" xmlns="http://www.w3.org/2000/svg">
<path d="M18.636 15.0056L21.2176 0.484009H25.2514L22.7504 15.0056H18.636Z" fill="#3C58BF"/>
<path d="M18.636 15.0056L21.9437 0.484009H25.2514L22.7504 15.0056H18.636Z" fill="#293688"/>
<path d="M37.3529 0.645294C36.5462 0.322586 35.2553 -0.00012207 33.6418 -0.00012207C29.608 -0.00012207 26.7037 2.01677 26.7037 4.92111C26.7037 7.09935 28.7206 8.22881 30.3341 8.9549C31.9476 9.68098 32.4317 10.165 32.4317 10.8104C32.4317 11.7785 31.1409 12.2626 30.0114 12.2626C28.3979 12.2626 27.5105 12.0206 26.139 11.4558L25.5742 11.2138L25.0095 14.5215C25.9776 14.9249 27.7525 15.3283 29.608 15.3283C33.8838 15.3283 36.7075 13.3114 36.7075 10.2457C36.7075 8.55151 35.6587 7.2607 33.2384 6.21191C31.7863 5.48582 30.8988 5.08246 30.8988 4.35637C30.8988 3.71097 31.6249 3.06557 33.2384 3.06557C34.6099 3.06557 35.578 3.30759 36.3041 3.63029L36.7075 3.79164L37.3529 0.645294Z" fill="#3C58BF"/>
<path d="M37.3529 0.645294C36.5462 0.322586 35.2553 -0.00012207 33.6418 -0.00012207C29.608 -0.00012207 27.4298 2.01677 27.4298 4.92111C27.4298 7.09935 28.7206 8.22881 30.3341 8.9549C31.9476 9.68098 32.4317 10.165 32.4317 10.8104C32.4317 11.7785 31.1409 12.2626 30.0114 12.2626C28.3979 12.2626 27.5105 12.0206 26.139 11.4558L25.5742 11.2138L25.0095 14.5215C25.9776 14.9249 27.7525 15.3283 29.608 15.3283C33.8838 15.3283 36.7075 13.3114 36.7075 10.2457C36.7075 8.55151 35.6587 7.2607 33.2384 6.21191C31.7863 5.48582 30.8988 5.08246 30.8988 4.35637C30.8988 3.71097 31.6249 3.06557 33.2384 3.06557C34.6099 3.06557 35.578 3.30759 36.3041 3.63029L36.7075 3.79164L37.3529 0.645294Z" fill="#293688"/>
<path d="M44.291 0.484009C43.3229 0.484009 42.5968 0.564682 42.1935 1.53279L36.1428 15.0056H40.4993L41.3061 12.5854H46.4693L46.9533 15.0056H50.8258L47.4374 0.484009H44.291ZM42.4355 10.1651C42.6776 9.43901 44.049 5.88928 44.049 5.88928C44.049 5.88928 44.3717 5.00185 44.6138 4.43712L44.8558 5.80859C44.8558 5.80859 45.6625 9.43901 45.8239 10.2458H42.4355V10.1651Z" fill="#3C58BF"/>
<path d="M45.2591 0.484009C44.291 0.484009 43.5649 0.564682 43.1616 1.53279L36.1428 15.0056H40.4993L41.3061 12.5854H46.4693L46.9533 15.0056H50.8258L47.4374 0.484009H45.2591ZM42.4355 10.1651C42.7582 9.35834 44.049 5.88928 44.049 5.88928C44.049 5.88928 44.3717 5.00185 44.6138 4.43712L44.8558 5.80859C44.8558 5.80859 45.6625 9.43901 45.8239 10.2458H42.4355V10.1651Z" fill="#293688"/>
<path d="M11.214 10.6492L10.8106 8.55159C10.0845 6.13133 7.74495 3.46902 5.16333 2.17822L8.79374 15.0863H13.1502L19.685 0.564697H15.3285L11.214 10.6492Z" fill="#3C58BF"/>
<path d="M11.214 10.6492L10.8106 8.55159C10.0845 6.13133 7.74495 3.46902 5.16333 2.17822L8.79374 15.0863H13.1502L19.685 0.564697H16.1352L11.214 10.6492Z" fill="#293688"/>
<path d="M0 0.484009L0.726081 0.645355C5.88933 1.85548 9.43906 4.92117 10.8105 8.55159L9.35838 1.69414C9.11635 0.726028 8.39027 0.484009 7.50284 0.484009H0Z" fill="#FFBC00"/>
<path d="M0 0.484009C5.16324 1.69414 9.43906 4.84048 10.8105 8.4709L9.43906 2.74292C9.19703 1.77481 8.39027 1.21008 7.50284 1.21008L0 0.484009Z" fill="#F7981D"/>
<path d="M0 0.484009C5.16324 1.69414 9.43906 4.84048 10.8105 8.4709L9.84243 5.32454C9.60041 4.35643 9.27771 3.38834 8.14824 2.98495L0 0.484009Z" fill="#ED7C00"/>
<path d="M15.2477 10.165L12.5047 7.42201L11.2139 10.4877L10.8912 8.47078C10.1651 6.05052 7.82552 3.38821 5.2439 2.09741L8.87431 15.0055H13.2308L15.2477 10.165Z" fill="#051244"/>
<path d="M22.7504 15.0055L19.2814 11.4558L18.636 15.0055H22.7504Z" fill="#051244"/>
<path d="M32.0283 10.0037C32.351 10.3264 32.5124 10.5684 32.4317 10.8911C32.4317 11.8592 31.1409 12.3433 30.0114 12.3433C28.3979 12.3433 27.5105 12.1012 26.139 11.5365L25.5742 11.2945L25.0095 14.6022C25.9776 15.0056 27.7525 15.4089 29.608 15.4089C32.1896 15.4089 34.2872 14.6829 35.4974 13.392L32.0283 10.0037Z" fill="#051244"/>
<path d="M36.7073 15.0055H40.499L41.3058 12.5853H46.4691L46.9531 15.0055H50.8255L49.454 9.1162L44.6135 4.43701L44.8555 5.72783C44.8555 5.72783 45.6623 9.35823 45.8236 10.165H42.4352C42.758 9.35823 44.0487 5.88918 44.0487 5.88918C44.0487 5.88918 44.3715 5.00174 44.6135 4.43701" fill="#051244"/>
</svg>
