<svg width="64" height="20" viewBox="0 0 64 20" fill="none" xmlns="http://www.w3.org/2000/svg">
<path d="M23.1202 19.1552L26.323 1.1394H31.3274L28.2247 19.1552H23.1202Z" fill="#C2C2C2"/>
<path d="M23.1202 19.1552L27.2238 1.1394H31.3274L28.2247 19.1552H23.1202Z" fill="#C2C2C2"/>
<path d="M46.3407 1.33951C45.3398 0.939163 43.7383 0.538818 41.7366 0.538818C36.7322 0.538818 33.1291 3.04102 33.1291 6.64417C33.1291 9.34653 35.6313 10.7478 37.633 11.6486C39.6348 12.5493 40.2353 13.1498 40.2353 13.9506C40.2353 15.1516 38.6339 15.7521 37.2327 15.7521C35.2309 15.7521 34.1299 15.4519 32.4285 14.7513L31.7278 14.451L31.0272 18.5546C32.2283 19.055 34.4302 19.5555 36.7322 19.5555C42.0369 19.5555 45.5399 17.0533 45.5399 13.2499C45.5399 11.1481 44.2388 9.54672 41.2362 8.24557C39.4346 7.34479 38.3336 6.84436 38.3336 5.94354C38.3336 5.14285 39.2344 4.34213 41.2362 4.34213C42.9377 4.34213 44.1387 4.64243 45.0395 5.04276L45.5399 5.24295L46.3407 1.33951Z" fill="#C2C2C2"/>
<path d="M46.3407 1.33951C45.3398 0.939163 43.7383 0.538818 41.7366 0.538818C36.7322 0.538818 34.0299 3.04102 34.0299 6.64417C34.0299 9.34653 35.6313 10.7478 37.633 11.6486C39.6348 12.5493 40.2353 13.1498 40.2353 13.9506C40.2353 15.1516 38.6339 15.7521 37.2327 15.7521C35.2309 15.7521 34.1299 15.4519 32.4285 14.7513L31.7278 14.451L31.0272 18.5546C32.2283 19.055 34.4302 19.5555 36.7322 19.5555C42.0369 19.5555 45.5399 17.0533 45.5399 13.2499C45.5399 11.1481 44.2388 9.54672 41.2362 8.24557C39.4346 7.34479 38.3336 6.84436 38.3336 5.94354C38.3336 5.14285 39.2344 4.34213 41.2362 4.34213C42.9377 4.34213 44.1387 4.64243 45.0395 5.04276L45.5399 5.24295L46.3407 1.33951Z" fill="#C2C2C2"/>
<path d="M54.9481 1.1394C53.7471 1.1394 52.8463 1.23947 52.3459 2.44052L44.8392 19.1552H50.244L51.2449 16.1526H57.6505L58.251 19.1552H63.0552L58.8516 1.1394H54.9481ZM52.6461 13.1499C52.9464 12.2491 54.6478 7.84528 54.6478 7.84528C54.6478 7.84528 55.0482 6.74429 55.3484 6.0437L55.6487 7.74518C55.6487 7.74518 56.6496 12.2491 56.8498 13.25H52.6461V13.1499Z" fill="#C2C2C2"/>
<path d="M56.1491 1.1394C54.9481 1.1394 54.0473 1.23947 53.5469 2.44052L44.8392 19.1552H50.244L51.2448 16.1526H57.6505L58.251 19.1552H63.0552L58.8515 1.1394H56.1491ZM52.6461 13.1499C53.0464 12.149 54.6478 7.84528 54.6478 7.84528C54.6478 7.84528 55.0482 6.74429 55.3484 6.0437L55.6487 7.74518C55.6487 7.74518 56.6496 12.2491 56.8497 13.25H52.6461V13.1499Z" fill="#C2C2C2"/>
<path d="M13.9122 13.7505L13.4118 11.1482C12.511 8.14557 9.60844 4.84268 6.40564 3.24127L10.9096 19.2553H16.3143L24.4214 1.2395H19.0167L13.9122 13.7505Z" fill="#C2C2C2"/>
<path d="M13.9122 13.7505L13.4118 11.1482C12.511 8.14557 9.60844 4.84268 6.40564 3.24127L10.9096 19.2553H16.3143L24.4214 1.2395H20.0176L13.9122 13.7505Z" fill="#C2C2C2"/>
<path d="M0 1.1394L0.900789 1.33957C7.3064 2.84088 11.7103 6.64423 13.4117 11.1482L11.6102 2.64072C11.3099 1.43967 10.4091 1.1394 9.30815 1.1394H0Z" fill="#C2C2C2"/>
<path d="M0 1.1394C6.40561 2.64072 11.7103 6.54413 13.4117 11.0481L11.7103 3.94183C11.41 2.74081 10.4091 2.04019 9.30815 2.04019L0 1.1394Z" fill="#C2C2C2"/>
<path d="M0 1.1394C6.40561 2.64072 11.7103 6.54413 13.4117 11.0481L12.2107 7.14465C11.9104 5.9436 11.5101 4.74255 10.1089 4.24213L0 1.1394Z" fill="#C2C2C2"/>
<path d="M18.9166 13.1499L15.5136 9.74692L13.9122 13.5502L13.5119 11.048C12.6111 8.04541 9.70854 4.74252 6.50574 3.14111L11.0097 19.1552H16.4144L18.9166 13.1499Z" fill="#C2C2C2"/>
<path d="M28.2247 19.1551L23.9209 14.7512L23.1202 19.1551H28.2247Z" fill="#C2C2C2"/>
<path d="M39.7348 12.9497C40.1352 13.35 40.3354 13.6503 40.2353 14.0506C40.2353 15.2517 38.6339 15.8522 37.2327 15.8522C35.2309 15.8522 34.1299 15.552 32.4284 14.8513L31.7278 14.5511L31.0272 18.6547C32.2283 19.1551 34.4302 19.6556 36.7322 19.6556C39.935 19.6556 42.5373 18.7548 44.0386 17.1534L39.7348 12.9497Z" fill="#C2C2C2"/>
<path d="M45.5399 19.1552H50.2441L51.2449 16.1526H57.6506L58.2511 19.1552H63.0553L61.3538 11.8488L55.3485 6.0437L55.6488 7.64508C55.6488 7.64508 56.6497 12.149 56.8499 13.1499H52.6462C53.0466 12.149 54.6479 7.84528 54.6479 7.84528C54.6479 7.84528 55.0483 6.74429 55.3485 6.0437" fill="#C2C2C2"/>
</svg>
